<mxfile host="app.diagrams.net" agent="Mozilla/5.0 (Macintosh; Intel Mac OS X 10_15_7) AppleWebKit/605.1.15 (KHTML, like Gecko) Version/17.5 Safari/605.1.15" version="24.7.5">
  <diagram name="Page-1" id="Nqm8IUTgnR_tMmVbQ-tZ">
    <mxGraphModel dx="954" dy="622" grid="1" gridSize="10" guides="1" tooltips="1" connect="1" arrows="1" fold="1" page="1" pageScale="1" pageWidth="827" pageHeight="1169" math="0" shadow="0">
      <root>
        <mxCell id="0" />
        <mxCell id="1" parent="0" />
        <mxCell id="8QAko-XmBXMnOeSDuaJn-4" style="edgeStyle=orthogonalEdgeStyle;rounded=0;orthogonalLoop=1;jettySize=auto;html=1;entryX=0;entryY=0.5;entryDx=0;entryDy=0;exitX=1;exitY=0.25;exitDx=0;exitDy=0;" edge="1" parent="1" source="8QAko-XmBXMnOeSDuaJn-1" target="8QAko-XmBXMnOeSDuaJn-2">
          <mxGeometry relative="1" as="geometry" />
        </mxCell>
        <mxCell id="8QAko-XmBXMnOeSDuaJn-16" style="edgeStyle=orthogonalEdgeStyle;rounded=0;orthogonalLoop=1;jettySize=auto;html=1;entryX=0;entryY=0.5;entryDx=0;entryDy=0;exitX=1;exitY=0.75;exitDx=0;exitDy=0;" edge="1" parent="1" source="8QAko-XmBXMnOeSDuaJn-1" target="8QAko-XmBXMnOeSDuaJn-3">
          <mxGeometry relative="1" as="geometry" />
        </mxCell>
        <mxCell id="8QAko-XmBXMnOeSDuaJn-1" value="PA1616D" style="rounded=0;whiteSpace=wrap;html=1;fillColor=#ffe6cc;strokeColor=#d79b00;" vertex="1" parent="1">
          <mxGeometry x="160" y="150" width="80" height="40" as="geometry" />
        </mxCell>
        <mxCell id="8QAko-XmBXMnOeSDuaJn-7" style="edgeStyle=orthogonalEdgeStyle;rounded=0;orthogonalLoop=1;jettySize=auto;html=1;entryX=0;entryY=0.25;entryDx=0;entryDy=0;" edge="1" parent="1" source="8QAko-XmBXMnOeSDuaJn-2" target="8QAko-XmBXMnOeSDuaJn-6">
          <mxGeometry relative="1" as="geometry" />
        </mxCell>
        <mxCell id="8QAko-XmBXMnOeSDuaJn-2" value="/dev/serial0" style="rounded=0;whiteSpace=wrap;html=1;fillColor=#e1d5e7;strokeColor=#9673a6;" vertex="1" parent="1">
          <mxGeometry x="280" y="120" width="80" height="40" as="geometry" />
        </mxCell>
        <mxCell id="8QAko-XmBXMnOeSDuaJn-8" style="edgeStyle=orthogonalEdgeStyle;rounded=0;orthogonalLoop=1;jettySize=auto;html=1;entryX=0;entryY=0.75;entryDx=0;entryDy=0;" edge="1" parent="1" source="8QAko-XmBXMnOeSDuaJn-3" target="8QAko-XmBXMnOeSDuaJn-6">
          <mxGeometry relative="1" as="geometry" />
        </mxCell>
        <mxCell id="8QAko-XmBXMnOeSDuaJn-3" value="/dev/pps0" style="rounded=0;whiteSpace=wrap;html=1;fillColor=#e1d5e7;strokeColor=#9673a6;" vertex="1" parent="1">
          <mxGeometry x="280" y="180" width="80" height="40" as="geometry" />
        </mxCell>
        <mxCell id="8QAko-XmBXMnOeSDuaJn-10" style="edgeStyle=orthogonalEdgeStyle;rounded=0;orthogonalLoop=1;jettySize=auto;html=1;" edge="1" parent="1" source="8QAko-XmBXMnOeSDuaJn-6" target="8QAko-XmBXMnOeSDuaJn-9">
          <mxGeometry relative="1" as="geometry" />
        </mxCell>
        <mxCell id="8QAko-XmBXMnOeSDuaJn-6" value="GPSD" style="rounded=0;whiteSpace=wrap;html=1;fillColor=#d5e8d4;strokeColor=#82b366;" vertex="1" parent="1">
          <mxGeometry x="400" y="150" width="80" height="40" as="geometry" />
        </mxCell>
        <mxCell id="8QAko-XmBXMnOeSDuaJn-12" style="edgeStyle=orthogonalEdgeStyle;rounded=0;orthogonalLoop=1;jettySize=auto;html=1;entryX=0;entryY=0.5;entryDx=0;entryDy=0;" edge="1" parent="1" source="8QAko-XmBXMnOeSDuaJn-9" target="8QAko-XmBXMnOeSDuaJn-11">
          <mxGeometry relative="1" as="geometry" />
        </mxCell>
        <mxCell id="8QAko-XmBXMnOeSDuaJn-9" value="chrony" style="rounded=0;whiteSpace=wrap;html=1;fillColor=#d5e8d4;strokeColor=#82b366;" vertex="1" parent="1">
          <mxGeometry x="520" y="150" width="80" height="40" as="geometry" />
        </mxCell>
        <mxCell id="8QAko-XmBXMnOeSDuaJn-15" style="edgeStyle=orthogonalEdgeStyle;rounded=0;orthogonalLoop=1;jettySize=auto;html=1;entryX=0;entryY=0.5;entryDx=0;entryDy=0;" edge="1" parent="1" source="8QAko-XmBXMnOeSDuaJn-11" target="8QAko-XmBXMnOeSDuaJn-13">
          <mxGeometry relative="1" as="geometry" />
        </mxCell>
        <mxCell id="8QAko-XmBXMnOeSDuaJn-18" style="edgeStyle=orthogonalEdgeStyle;rounded=0;orthogonalLoop=1;jettySize=auto;html=1;entryX=0.5;entryY=0;entryDx=0;entryDy=0;dashed=1;" edge="1" parent="1" source="8QAko-XmBXMnOeSDuaJn-11" target="8QAko-XmBXMnOeSDuaJn-17">
          <mxGeometry relative="1" as="geometry" />
        </mxCell>
        <mxCell id="8QAko-XmBXMnOeSDuaJn-11" value="systemd" style="rounded=0;whiteSpace=wrap;html=1;fillColor=#e1d5e7;strokeColor=#9673a6;" vertex="1" parent="1">
          <mxGeometry x="640" y="150" width="80" height="40" as="geometry" />
        </mxCell>
        <mxCell id="8QAko-XmBXMnOeSDuaJn-13" value="Linux" style="rounded=0;whiteSpace=wrap;html=1;fillColor=#e1d5e7;strokeColor=#9673a6;" vertex="1" parent="1">
          <mxGeometry x="760" y="150" width="80" height="40" as="geometry" />
        </mxCell>
        <mxCell id="8QAko-XmBXMnOeSDuaJn-17" value="r2cloud" style="rounded=0;whiteSpace=wrap;html=1;fillColor=#d5e8d4;strokeColor=#82b366;" vertex="1" parent="1">
          <mxGeometry x="640" y="230" width="80" height="40" as="geometry" />
        </mxCell>
      </root>
    </mxGraphModel>
  </diagram>
</mxfile>
